<mxfile host="Electron" agent="Mozilla/5.0 (Windows NT 10.0; Win64; x64) AppleWebKit/537.36 (KHTML, like Gecko) draw.io/24.7.8 Chrome/128.0.6613.36 Electron/32.0.1 Safari/537.36" version="24.7.8">
  <diagram id="xmYFiLQlNUHtVVtdkm4H" name="Blockdiagramm_Protoquad_PDB_V1">
    <mxGraphModel dx="1674" dy="956" grid="1" gridSize="10" guides="1" tooltips="1" connect="1" arrows="1" fold="1" page="1" pageScale="1" pageWidth="827" pageHeight="1169" background="#ffffff" math="0" shadow="0">
      <root>
        <mxCell id="0" />
        <mxCell id="1" parent="0" />
        <mxCell id="J1N32N0F4YYRkfDEnyMb-40" value="&lt;blockquote style=&quot;margin: 0 0 0 40px ; border: none ; padding: 0px&quot;&gt;&lt;blockquote style=&quot;margin: 0 0 0 40px ; border: none ; padding: 0px&quot;&gt;&lt;blockquote style=&quot;margin: 0 0 0 40px ; border: none ; padding: 0px&quot;&gt;&lt;blockquote style=&quot;margin: 0 0 0 40px ; border: none ; padding: 0px&quot;&gt;&lt;br&gt;&lt;/blockquote&gt;&lt;/blockquote&gt;&lt;/blockquote&gt;&lt;/blockquote&gt;" style="rounded=0;whiteSpace=wrap;html=1;fontSize=12;fillColor=none;dashed=1;dashPattern=1 1;fontColor=#000000;strokeColor=#000000;" parent="1" vertex="1">
          <mxGeometry x="180" y="150" width="160" height="230" as="geometry" />
        </mxCell>
        <mxCell id="OzKXB7JvfZYFeE8atnZY-1" value="&lt;blockquote style=&quot;margin: 0 0 0 40px ; border: none ; padding: 0px&quot;&gt;&lt;blockquote style=&quot;margin: 0 0 0 40px ; border: none ; padding: 0px&quot;&gt;&lt;blockquote style=&quot;margin: 0 0 0 40px ; border: none ; padding: 0px&quot;&gt;&lt;blockquote style=&quot;margin: 0 0 0 40px ; border: none ; padding: 0px&quot;&gt;&lt;br&gt;&lt;/blockquote&gt;&lt;/blockquote&gt;&lt;/blockquote&gt;&lt;/blockquote&gt;" style="rounded=0;whiteSpace=wrap;html=1;fontSize=12;fillColor=none;dashed=1;dashPattern=1 1;fontColor=#000000;strokeColor=#000000;" parent="1" vertex="1">
          <mxGeometry x="420" y="230" width="160" height="60" as="geometry" />
        </mxCell>
        <mxCell id="Gxjp7-8aFgP3QwvR09KS-1" value="&lt;font style=&quot;&quot;&gt;&lt;b style=&quot;&quot;&gt;&lt;font style=&quot;font-size: 15px;&quot;&gt;Lennert Maurer, 27.02.2025, V1 Rev0&lt;/font&gt;&lt;/b&gt;&lt;/font&gt;" style="text;html=1;strokeColor=none;fillColor=none;align=left;verticalAlign=middle;whiteSpace=wrap;rounded=0;" parent="1" vertex="1">
          <mxGeometry x="45" y="50" width="430" height="20" as="geometry" />
        </mxCell>
        <mxCell id="Gxjp7-8aFgP3QwvR09KS-5" value="&lt;span style=&quot;font-size: 18px;&quot;&gt;&lt;b&gt;Blockdiagramm OMAV_OrinNX_A603_Board&lt;/b&gt;&lt;/span&gt;" style="text;whiteSpace=wrap;html=1;" parent="1" vertex="1">
          <mxGeometry x="45" y="10" width="475" height="50" as="geometry" />
        </mxCell>
        <mxCell id="1rd_cnbaAyYcH_ptm-nF-5" style="edgeStyle=orthogonalEdgeStyle;rounded=0;orthogonalLoop=1;jettySize=auto;html=1;exitX=0;exitY=0.5;exitDx=0;exitDy=0;entryX=1;entryY=0.5;entryDx=0;entryDy=0;" parent="1" source="J1N32N0F4YYRkfDEnyMb-21" target="1rd_cnbaAyYcH_ptm-nF-2" edge="1">
          <mxGeometry relative="1" as="geometry">
            <mxPoint x="360" y="179.9655172413793" as="targetPoint" />
          </mxGeometry>
        </mxCell>
        <mxCell id="1rd_cnbaAyYcH_ptm-nF-6" value="+3V" style="edgeLabel;html=1;align=center;verticalAlign=middle;resizable=0;points=[];" parent="1rd_cnbaAyYcH_ptm-nF-5" vertex="1" connectable="0">
          <mxGeometry x="-0.1485" y="1" relative="1" as="geometry">
            <mxPoint x="-9" y="-11" as="offset" />
          </mxGeometry>
        </mxCell>
        <mxCell id="J1N32N0F4YYRkfDEnyMb-21" value="Lithium Battery Connector (Clip)" style="rounded=0;whiteSpace=wrap;html=1;fillColor=#d5e8d4;strokeColor=#82b366;fontColor=#000000;" parent="1" vertex="1">
          <mxGeometry x="440" y="160" width="120" height="40" as="geometry" />
        </mxCell>
        <mxCell id="J1N32N0F4YYRkfDEnyMb-22" value="JST GH Conn (&lt;span style=&quot;background-color: initial;&quot;&gt;3 Pin)&lt;/span&gt;" style="rounded=0;whiteSpace=wrap;html=1;fillColor=#dae8fc;strokeColor=#6c8ebf;fontColor=#000000;" parent="1" vertex="1">
          <mxGeometry x="440" y="240" width="120" height="40" as="geometry" />
        </mxCell>
        <mxCell id="J1N32N0F4YYRkfDEnyMb-23" value="&lt;span style=&quot;background-color: initial;&quot;&gt;Ribbon Cable Conn&lt;/span&gt;" style="rounded=0;whiteSpace=wrap;html=1;fillColor=#fff2cc;strokeColor=#d6b656;fontColor=#000000;" parent="1" vertex="1">
          <mxGeometry x="200" y="240" width="120" height="40" as="geometry" />
        </mxCell>
        <mxCell id="J1N32N0F4YYRkfDEnyMb-24" value="&lt;span style=&quot;background-color: initial;&quot;&gt;Pin Header&lt;/span&gt;" style="rounded=0;whiteSpace=wrap;html=1;fillColor=#b0e3e6;strokeColor=#0e8088;fontColor=#000000;" parent="1" vertex="1">
          <mxGeometry x="200" y="320" width="120" height="40" as="geometry" />
        </mxCell>
        <mxCell id="J1N32N0F4YYRkfDEnyMb-26" value="Pin Header" style="rounded=0;whiteSpace=wrap;html=1;fillColor=#f8cecc;strokeColor=#b85450;fontColor=#000000;" parent="1" vertex="1">
          <mxGeometry x="600" y="320" width="120" height="40" as="geometry" />
        </mxCell>
        <mxCell id="J1N32N0F4YYRkfDEnyMb-27" value="JST GH Conn&lt;div&gt;5 Pin&lt;/div&gt;" style="rounded=0;whiteSpace=wrap;html=1;fillColor=#dae8fc;strokeColor=#6c8ebf;fontColor=#000000;" parent="1" vertex="1">
          <mxGeometry x="440" y="400" width="120" height="40" as="geometry" />
        </mxCell>
        <mxCell id="J1N32N0F4YYRkfDEnyMb-28" value="IMU&lt;br&gt;BMI088" style="rounded=0;whiteSpace=wrap;html=1;fillColor=#e1d5e7;strokeColor=#9673a6;fontColor=#000000;" parent="1" vertex="1">
          <mxGeometry x="440" y="320" width="120" height="40" as="geometry" />
        </mxCell>
        <mxCell id="J1N32N0F4YYRkfDEnyMb-29" style="edgeStyle=orthogonalEdgeStyle;rounded=0;orthogonalLoop=1;jettySize=auto;html=1;exitX=0.5;exitY=1;exitDx=0;exitDy=0;" parent="1" source="J1N32N0F4YYRkfDEnyMb-27" target="J1N32N0F4YYRkfDEnyMb-27" edge="1">
          <mxGeometry relative="1" as="geometry" />
        </mxCell>
        <mxCell id="J1N32N0F4YYRkfDEnyMb-30" value="JST GH Conn&lt;div&gt;6 Pin&lt;/div&gt;" style="rounded=0;whiteSpace=wrap;html=1;fillColor=#dae8fc;strokeColor=#6c8ebf;fontColor=#000000;" parent="1" vertex="1">
          <mxGeometry x="440" y="480" width="120" height="40" as="geometry" />
        </mxCell>
        <mxCell id="J1N32N0F4YYRkfDEnyMb-31" value="JST GH Conn&lt;div&gt;7 Pin&lt;/div&gt;" style="rounded=0;whiteSpace=wrap;html=1;fillColor=#dae8fc;strokeColor=#6c8ebf;fontColor=#000000;" parent="1" vertex="1">
          <mxGeometry x="440" y="560" width="120" height="40" as="geometry" />
        </mxCell>
        <mxCell id="J1N32N0F4YYRkfDEnyMb-32" value="JST GH Conn&lt;div&gt;8 Pin&lt;/div&gt;" style="rounded=0;whiteSpace=wrap;html=1;fillColor=#dae8fc;strokeColor=#6c8ebf;fontColor=#000000;" parent="1" vertex="1">
          <mxGeometry x="440" y="640" width="120" height="40" as="geometry" />
        </mxCell>
        <mxCell id="J1N32N0F4YYRkfDEnyMb-33" value="" style="endArrow=classic;startArrow=classic;html=1;rounded=0;entryX=0;entryY=0.5;entryDx=0;entryDy=0;" parent="1" edge="1">
          <mxGeometry width="50" height="50" relative="1" as="geometry">
            <mxPoint x="320" y="259.64" as="sourcePoint" />
            <mxPoint x="440" y="259.64" as="targetPoint" />
          </mxGeometry>
        </mxCell>
        <mxCell id="J1N32N0F4YYRkfDEnyMb-34" value="USB" style="edgeLabel;html=1;align=center;verticalAlign=middle;resizable=0;points=[];" parent="J1N32N0F4YYRkfDEnyMb-33" vertex="1" connectable="0">
          <mxGeometry x="-0.0494" y="2" relative="1" as="geometry">
            <mxPoint x="3" y="-8" as="offset" />
          </mxGeometry>
        </mxCell>
        <mxCell id="J1N32N0F4YYRkfDEnyMb-37" value="" style="endArrow=classic;startArrow=classic;html=1;rounded=0;entryX=0;entryY=0.5;entryDx=0;entryDy=0;" parent="1" edge="1">
          <mxGeometry width="50" height="50" relative="1" as="geometry">
            <mxPoint x="320" y="339.64" as="sourcePoint" />
            <mxPoint x="440" y="339.64" as="targetPoint" />
          </mxGeometry>
        </mxCell>
        <mxCell id="J1N32N0F4YYRkfDEnyMb-38" value="SPI" style="edgeLabel;html=1;align=center;verticalAlign=middle;resizable=0;points=[];" parent="J1N32N0F4YYRkfDEnyMb-37" vertex="1" connectable="0">
          <mxGeometry x="-0.1299" y="2" relative="1" as="geometry">
            <mxPoint x="8" y="-8" as="offset" />
          </mxGeometry>
        </mxCell>
        <mxCell id="J1N32N0F4YYRkfDEnyMb-41" value="&lt;font style=&quot;font-size: 12px&quot;&gt;to A603 Carrier Board&lt;/font&gt;" style="text;html=1;strokeColor=none;fillColor=none;align=center;verticalAlign=middle;whiteSpace=wrap;rounded=0;fontColor=#000000;" parent="1" vertex="1">
          <mxGeometry x="160" y="130" width="160" height="20" as="geometry" />
        </mxCell>
        <mxCell id="J1N32N0F4YYRkfDEnyMb-45" value="" style="endArrow=classic;startArrow=classic;html=1;rounded=0;exitX=0;exitY=0.5;exitDx=0;exitDy=0;" parent="1" source="J1N32N0F4YYRkfDEnyMb-27" edge="1">
          <mxGeometry width="50" height="50" relative="1" as="geometry">
            <mxPoint x="260" y="410" as="sourcePoint" />
            <mxPoint x="310" y="360" as="targetPoint" />
            <Array as="points">
              <mxPoint x="310" y="420" />
            </Array>
          </mxGeometry>
        </mxCell>
        <mxCell id="J1N32N0F4YYRkfDEnyMb-49" value="I2C" style="edgeLabel;html=1;align=center;verticalAlign=middle;resizable=0;points=[];" parent="J1N32N0F4YYRkfDEnyMb-45" vertex="1" connectable="0">
          <mxGeometry x="-0.2579" relative="1" as="geometry">
            <mxPoint x="11" y="-10" as="offset" />
          </mxGeometry>
        </mxCell>
        <mxCell id="J1N32N0F4YYRkfDEnyMb-46" value="" style="endArrow=classic;startArrow=classic;html=1;rounded=0;exitX=0;exitY=0.5;exitDx=0;exitDy=0;" parent="1" source="J1N32N0F4YYRkfDEnyMb-30" edge="1">
          <mxGeometry width="50" height="50" relative="1" as="geometry">
            <mxPoint x="410" y="420" as="sourcePoint" />
            <mxPoint x="280" y="360" as="targetPoint" />
            <Array as="points">
              <mxPoint x="280" y="500" />
            </Array>
          </mxGeometry>
        </mxCell>
        <mxCell id="J1N32N0F4YYRkfDEnyMb-50" value="GPIOs" style="edgeLabel;html=1;align=center;verticalAlign=middle;resizable=0;points=[];" parent="J1N32N0F4YYRkfDEnyMb-46" vertex="1" connectable="0">
          <mxGeometry x="-0.6" y="-2" relative="1" as="geometry">
            <mxPoint y="-8" as="offset" />
          </mxGeometry>
        </mxCell>
        <mxCell id="J1N32N0F4YYRkfDEnyMb-47" value="" style="endArrow=classic;startArrow=classic;html=1;rounded=0;exitX=0;exitY=0.5;exitDx=0;exitDy=0;" parent="1" source="J1N32N0F4YYRkfDEnyMb-31" edge="1">
          <mxGeometry width="50" height="50" relative="1" as="geometry">
            <mxPoint x="400" y="500" as="sourcePoint" />
            <mxPoint x="240" y="360" as="targetPoint" />
            <Array as="points">
              <mxPoint x="240" y="580" />
            </Array>
          </mxGeometry>
        </mxCell>
        <mxCell id="J1N32N0F4YYRkfDEnyMb-51" value="UART" style="edgeLabel;html=1;align=center;verticalAlign=middle;resizable=0;points=[];" parent="J1N32N0F4YYRkfDEnyMb-47" vertex="1" connectable="0">
          <mxGeometry x="-0.719" y="-1" relative="1" as="geometry">
            <mxPoint y="-9" as="offset" />
          </mxGeometry>
        </mxCell>
        <mxCell id="J1N32N0F4YYRkfDEnyMb-48" value="" style="endArrow=classic;startArrow=classic;html=1;rounded=0;exitX=0;exitY=0.5;exitDx=0;exitDy=0;" parent="1" source="J1N32N0F4YYRkfDEnyMb-32" edge="1">
          <mxGeometry width="50" height="50" relative="1" as="geometry">
            <mxPoint x="410" y="580" as="sourcePoint" />
            <mxPoint x="210" y="360" as="targetPoint" />
            <Array as="points">
              <mxPoint x="210" y="660" />
            </Array>
          </mxGeometry>
        </mxCell>
        <mxCell id="J1N32N0F4YYRkfDEnyMb-52" value="SPI" style="edgeLabel;html=1;align=center;verticalAlign=middle;resizable=0;points=[];" parent="J1N32N0F4YYRkfDEnyMb-48" vertex="1" connectable="0">
          <mxGeometry x="-0.7774" relative="1" as="geometry">
            <mxPoint y="-10" as="offset" />
          </mxGeometry>
        </mxCell>
        <mxCell id="OzKXB7JvfZYFeE8atnZY-4" value="to OMAV-PDB-Board" style="text;html=1;strokeColor=none;fillColor=none;align=center;verticalAlign=middle;whiteSpace=wrap;rounded=0;fontColor=#000000;" parent="1" vertex="1">
          <mxGeometry x="400" y="210" width="160" height="20" as="geometry" />
        </mxCell>
        <mxCell id="1rd_cnbaAyYcH_ptm-nF-2" value="JST GH Conn&lt;div&gt;2 Pin&lt;/div&gt;" style="rounded=0;whiteSpace=wrap;html=1;fillColor=#dae8fc;strokeColor=#6c8ebf;fontColor=#000000;" parent="1" vertex="1">
          <mxGeometry x="200" y="160" width="120" height="40" as="geometry" />
        </mxCell>
        <mxCell id="1rd_cnbaAyYcH_ptm-nF-7" value="Lithium Battery Connector SMD" style="text;whiteSpace=wrap;" parent="1" vertex="1">
          <mxGeometry x="560" y="110" width="200" height="40" as="geometry" />
        </mxCell>
      </root>
    </mxGraphModel>
  </diagram>
</mxfile>
